<?xml version="1.0" encoding="UTF-8"?>
<svg width="16px" height="13px" viewBox="0 0 16 13" version="1.1" xmlns="http://www.w3.org/2000/svg" xmlns:xlink="http://www.w3.org/1999/xlink">
    <!-- Generator: Sketch 46.2 (44496) - http://www.bohemiancoding.com/sketch -->
    <title>Group 88</title>
    <desc>Created with Sketch.</desc>
    <defs></defs>
    <g id="Page-2" stroke="none" stroke-width="1" fill="none" fill-rule="evenodd">
        <g id="首页-copy-3" transform="translate(-440.000000, -412.000000)" fill="#fff">
            <g id="Group-36" transform="translate(410.000000, 198.000000)">
                <g id="Group-8" transform="translate(0.000000, 196.000000)">
                    <g id="Group-7" transform="translate(30.000000, 12.000000)">
                        <g id="Group-5" transform="translate(0.000000, 6.000000)">
                            <g id="Group-88">
                                <path d="M7.64503533,5.44708 C8.08350306,5.78480446 8.0763402,6.3378811 7.64503533,6.67008844 L0.793916059,11.94708 C0.355448327,12.2848045 0,12.1110948 0,11.5600819 L0,0.557086553 C0,0.00562894415 0.362611192,-0.162118901 0.793916059,0.170088444 L7.64503533,5.44708 Z" id="Triangle"></path>
                                <path d="M14.788145,5.44897361 C15.2252549,5.78565225 15.2254966,6.33133008 14.788145,6.66819484 L9.23040898,10.9489736 C8.79329902,11.2856523 8.43895139,11.1137472 8.43895139,10.5630067 L8.43895139,1.55416172 C8.43895139,1.00431945 8.79305739,0.831330079 9.23040898,1.16819484 L14.788145,5.44897361 Z" id="Triangle-Copy" opacity="0.5"></path>
                            </g>
                        </g>
                    </g>
                </g>
            </g>
        </g>
    </g>
</svg>