<?xml version="1.0" encoding="UTF-8"?>
<svg width="93px" height="93px" viewBox="0 0 93 93" version="1.1" xmlns="http://www.w3.org/2000/svg" xmlns:xlink="http://www.w3.org/1999/xlink">
    <!-- Generator: Sketch 46.2 (44496) - http://www.bohemiancoding.com/sketch -->
    <title>Group 70</title>
    <desc>Created with Sketch.</desc>
    <defs>
        <ellipse id="path-1" cx="42.3280819" cy="42.3007691" rx="42.2149732" ry="42.3007691"></ellipse>
    </defs>
    <g id="Page-2" stroke="none" stroke-width="1" fill="none" fill-rule="evenodd">
        <g id="首页-copy-3" transform="translate(-1100.000000, -110.000000)">
            <g id="versatile_05" transform="translate(-10.000000, -500.000000)">
                <g id="Group-67">
                    <g id="Group-67-Copy" transform="translate(0.000000, 518.000000)">
                        <g id="Group-51" transform="translate(1061.000000, 0.000000)">
                            <g id="Group-50" transform="translate(0.000000, 0.015018)">
                                <g id="Group-61" transform="translate(0.000000, -0.000000)">
                                    <g id="Group-70" transform="translate(53.219400, 96.108247)">
                                        <g id="Oval-2">
                                            <use fill="#FFFFFF" fill-rule="evenodd" xlink:href="#path-1"></use>
                                            <ellipse stroke-opacity="0.250566123" stroke="#FFFFFF" stroke-width="4" cx="42.3280819" cy="42.3007691" rx="44.2149732" ry="44.3007691"></ellipse>
                                        </g>
                                        <ellipse id="Oval-23-Copy-2" fill="#4488FF" cx="26.5224732" cy="39.1001138" rx="9.09306646" ry="5.24081011"></ellipse>
                                        <path d="M19.9593651,33.1322083 C19.9593651,33.1322083 17.063507,37.7497254 17.4486805,38.7910924 C17.833854,39.8324594 35.7193244,39.6113813 35.5965012,38.7208453 C35.473678,37.8303093 33.3416321,33.102483 32.9345392,32.813082 C32.5274464,32.5236809 19.9593651,33.1322083 19.9593651,33.1322083 Z" id="Path-43" fill="#4488FF"></path>
                                        <ellipse id="Oval-23-Copy" fill="#2F65C2" cx="26.5224732" cy="33.5510207" rx="6.66824874" ry="2.77454653"></ellipse>
                                        <ellipse id="Oval-23" fill="#4488FF" cx="26.5224732" cy="27.5276462" rx="4.24343102" ry="4.31596127"></ellipse>
                                        <ellipse id="Oval-23-Copy-2" fill="#00CCA7" cx="58.6260495" cy="57.0990951" rx="9.09306646" ry="5.24081011"></ellipse>
                                        <path d="M52.0629414,51.1311897 C52.0629414,51.1311897 49.1670833,55.7487067 49.5522568,56.7900737 C49.9374303,57.8314408 67.8229007,57.6103627 67.7000775,56.7198267 C67.5772543,55.8292907 65.4452084,51.1014644 65.0381155,50.8120633 C64.6310227,50.5226623 52.0629414,51.1311897 52.0629414,51.1311897 Z" id="Path-43" fill="#3DCCC0"></path>
                                        <ellipse id="Oval-23-Copy" fill="#2E9990" cx="58.6260495" cy="51.5500021" rx="6.66824874" ry="2.77454653"></ellipse>
                                        <ellipse id="Oval-23" fill="#00CCA7" cx="58.6260495" cy="45.5266275" rx="4.24343102" ry="4.31596127"></ellipse>
                                        <path d="M23.1083834,51.4697586 C23.5115216,52.4108946 23.9797266,53.3221931 24.5091573,54.19749 L26.1768998,53.1846374 C25.694379,52.3868958 25.2677305,51.5564816 24.9004292,50.6990075 L23.1083834,51.4697586 Z M26.2816028,56.7143824 C26.9265714,57.5070794 27.6256909,58.2545879 28.3735417,58.9512154 L29.7013237,57.5200013 C29.0191126,56.8845175 28.381371,56.2026352 27.7930728,55.4795888 L26.2816028,56.7143824 Z M30.764632,60.8874943 C31.6012161,61.4738676 32.4775184,62.0018597 33.3874021,62.4672198 L34.2739743,60.7267188 C33.4444021,60.302434 32.6453473,59.8209853 31.8824239,59.2862418 L30.764632,60.8874943 Z M36.2831187,63.695787 C37.2474596,64.0257089 38.2354927,64.2887443 39.241515,64.4824478 L39.6095105,62.5634427 C38.6925343,62.3868845 37.7920805,62.1471645 36.9132381,61.8464936 L36.2831187,63.695787 Z M42.2251852,64.8488156 C42.6274631,64.8707528 43.0312841,64.8818676 43.4363581,64.8820865 C44.0652115,64.88209 44.6804915,64.8568386 45.2932274,64.806237 L45.1330476,62.8587282 C44.5737114,62.90492 44.0118726,62.9279781 43.4368891,62.9279751 C43.0673345,62.9277752 42.6984999,62.9176233 42.3311588,62.8975914 L42.2251852,64.8488156 Z" id="Oval-24" fill="#3DCCC0" fill-rule="nonzero"></path>
                                        <path d="M64.4787919,35.9145479 C64.1609408,34.9405953 63.7756867,33.991491 63.326289,33.0732938 L61.5753721,33.9337403 C61.9847909,34.7702537 62.3357238,35.6348051 62.6252355,36.5219206 L64.4787919,35.9145479 Z M61.7815548,30.4067747 C61.208615,29.5599476 60.5775537,28.7535606 59.8933564,27.9935841 L58.4453481,29.3025122 C59.0693996,29.9956814 59.6449325,30.7311127 60.1673865,31.5033199 L61.7815548,30.4067747 Z M57.6816487,25.8549519 C56.8998271,25.1972697 56.0734415,24.5941473 55.2085214,24.0503659 L54.1720575,25.7056374 C54.9608661,26.201567 55.7146107,26.7516737 56.4277565,27.3515846 L57.6816487,25.8549519 Z M52.4596779,22.5818577 C51.5279309,22.1658653 50.5673734,21.8147307 49.5839646,21.5314672 L49.0451964,23.4095247 C49.9414045,23.6676707 50.8167923,23.9876713 51.6659896,24.3668081 L52.4596779,22.5818577 Z M46.6159499,20.8946254 C45.611101,20.7505319 44.5926501,20.6751231 43.5655056,20.6698031 L43.5554256,22.6238886 C44.4934299,22.6287469 45.4229448,22.6975707 46.339684,22.8290294 L46.6159499,20.8946254 Z M40.4810873,20.8668906 C39.7297711,20.9676395 38.9865593,21.1066086 38.2536497,21.282987 C37.9881491,21.3469963 37.7317279,21.4137102 37.4756758,21.4853356 L38.0000354,23.3674834 C38.2333859,23.3022083 38.46708,23.2414074 38.7094493,23.1829748 C39.3771345,23.022293 40.0546817,22.8956022 40.7397591,22.8037357 L40.4810873,20.8668906 Z" id="Path" fill="#4488FF" fill-rule="nonzero"></path>
                                    </g>
                                </g>
                            </g>
                        </g>
                    </g>
                </g>
            </g>
        </g>
    </g>
</svg>